PathFileType	4	(X/Y/Z)	Patient4_TMGait_0pt7_02_left_21.trc.trc
DataRate	CameraRate	NumFrames	NumMarkers	Units	OrigDataRate	OrigDataStartFrame	OrigNumFrames
85.365853658537	85.365853658537	5	33	mm	85.365853658537	124	       141
Frame#	Time	Sacral			L.Shoulder			Chest			R.Shoulder			Neck			R.ASIS			L.ASIS			R.Thigh.Superior			R.Thigh.Lateral			R.Thigh.Inferior			R.Patella			L.Thigh.Superior			L.Thigh.Lateral			L.Thigh.Inferior			L.Patella			L.Shank.Superior			L.Shank.Lateral			L.Shank.Inferior			R.Shank.Superior			R.Shank.Lateral			R.Shank.Inferior			R.Heel			R.Midfoot.Superior			R.Midfoot.Lateral			R.Toe			L.Heel			L.Midfoot.Lateral			L.Midfoot.Superior			L.Toe			L.Elbow			L.Wrist			R.Elbow			R.Wrist			
		X1	Y1	Z1	X2	Y2	Z2	X3	Y3	Z3	X4	Y4	Z4	X5	Y5	Z5	X6	Y6	Z6	X7	Y7	Z7	X8	Y8	Z8	X9	Y9	Z9	X10	Y10	Z10	X11	Y11	Z11	X12	Y12	Z12	X13	Y13	Z13	X14	Y14	Z14	X15	Y15	Z15	X16	Y16	Z16	X17	Y17	Z17	X18	Y18	Z18	X19	Y19	Z19	X20	Y20	Z20	X21	Y21	Z21	X22	Y22	Z22	X23	Y23	Z23	X24	Y24	Z24	X25	Y25	Z25	X26	Y26	Z26	X27	Y27	Z27	X28	Y28	Z28	X29	Y29	Z29	X30	Y30	Z30	X31	Y31	Z31	X32	Y32	Z32	X33	Y33	Z33	

124	25.270857142857	820.843427837899	1000.041112676054	502.012461768773	997.111256685806	1416.452766214704	307.070351134742	1114.281722515254	1339.205497283945	455.005553992112	1056.734955503191	1418.628053016363	636.369229380501	1020.360526193693	1476.830693306373	462.350152143506	1046.552328445675	924.025283825651	610.016923803561	1024.342407260772	941.137130969135	334.978563077281	1031.516833286732	709.769341274248	585.662735667331	918.656221624102	624.419749417934	647.022664920722	974.470442418803	553.649676264634	568.392573251559	948.490488790879	469.796393526691	572.320200505518	1101.985264305858	768.247373217226	377.688435945885	1063.680477323964	636.204287351335	298.665735377367	1165.923847839428	583.532636047083	367.172798198772	1192.685551022055	515.742087079455	366.641922943131	1175.783958020629	440.050057341834	355.470506192278	1109.981904819654	310.782598141578	303.106178984449	1191.281172342513	211.068165176653	364.333067696918	904.024300693184	388.565288593583	579.945632454380	813.653961934226	301.512150512915	642.650806160822	835.794934810788	200.103851387636	579.929511759117	678.205111345948	47.486811895850	547.294768037757	848.856371687002	96.236797838785	589.070839536559	757.908454918525	38.324820888614	624.984455634721	966.612656394371	39.339250043902	624.244373627266	1101.081739615801	37.636506739561	397.863525048400	1179.375912964487	41.284027214830	321.872296653168	1251.242511128960	113.384359317097	349.347307699606	1385.009080684660	78.408897022517	330.593821721439	824.738090159195	1109.940927844913	220.001873299796	761.400724417258	857.997771858658	231.637879712747	1181.736180551397	1098.691795895907	740.653639863848	1416.326125676719	1121.837257845535	648.376993996945	
125	25.282571428571	823.193735698894	998.273309046790	499.364432822612	998.336037610359	1415.020727551414	304.937547725286	1115.409148980953	1338.429048044897	453.297577886112	1056.835770719836	1417.475538475181	634.504407448663	1020.871548571461	1475.631151969488	460.322156322415	1048.631348821686	922.481532960169	608.296339365305	1027.320624296959	939.344213575070	333.367107405378	1032.817672495242	708.154284099255	584.500263980462	918.982872156935	623.468828572898	645.605253785464	974.749864072113	551.997514705308	567.548200417556	947.828320344303	467.581047760091	571.450048699260	1104.695655679419	765.425514849597	375.677796541754	1063.742059030848	633.512336449515	297.972591910141	1166.518135265952	580.470021794529	365.588918590125	1191.682437686901	512.213470178941	365.830179268729	1174.664082263191	436.521683031790	354.862567089588	1107.460448593179	307.653848022568	303.655813968706	1187.880668352566	207.607988919022	365.092979571297	901.760578260241	387.189596200103	579.312827533779	809.629547956008	302.013734514251	642.263674166355	829.964482464761	199.996079608585	579.971507302349	670.049943820190	49.140940962019	547.787300690177	841.187727308222	96.405456039816	589.474265448707	749.813053529254	38.888685885452	625.289656781326	958.471788813973	39.006458565886	624.378961051233	1094.636553024207	37.143084193653	400.130268500538	1172.172997353569	39.277986386955	323.129234327270	1246.328317648614	108.840612085000	350.478494925204	1379.084919862821	70.168875756515	330.047581260124	826.149655318603	1108.411153350201	218.587315259581	761.383028272397	856.813497937576	230.526329184728	1184.016974212172	1098.067815515828	737.408913967861	1416.566478029939	1130.196072504715	643.965412426911	
126	25.294285714286	825.454804158029	996.837372479016	496.683091411417	999.749153486696	1413.785170481629	302.642141697883	1116.682320153479	1337.838327378115	451.475349974825	1057.118199614936	1416.600837849959	632.510454512058	1021.594477484986	1474.705630115336	458.111152127371	1050.601243355492	921.195659681956	606.461423168727	1030.188090486795	937.910766186440	331.664448570820	1034.321062606708	706.827594623506	583.258827246914	919.714291337379	622.631644776217	644.117498061124	975.654007002715	550.502868372936	566.696902414213	947.934101911301	465.304265675998	570.727748988831	1107.524623666959	763.365758844063	373.631268720915	1064.311995860163	631.637949675697	297.092189425691	1167.484889723827	578.213014440674	363.990596783807	1191.174286201201	509.389167876460	365.009434227367	1173.884395375076	433.585212115428	354.267256456855	1105.202835664092	305.372395216530	303.573119823249	1183.987956547158	204.664159966584	365.597923225690	900.050203534468	385.918824724046	578.779686284020	805.988764380231	302.827941663056	641.869808232079	824.479647809981	200.149186887749	580.098999441572	661.995695685691	51.406122469941	548.337464397154	833.764514643638	96.626977681576	589.978323035535	741.771804388354	39.730809351063	625.613990892927	950.320351109978	38.637230776221	624.506050176195	1087.141796847662	37.028054782318	401.683316969524	1164.132722881212	37.759459486126	323.899826126927	1240.434280035210	104.914879104547	351.356834047502	1372.260601113004	62.723238198778	329.612839692835	828.453014311115	1106.508913000262	217.009614938747	762.579498777846	855.178086299563	229.102788675311	1185.522872201843	1097.245348389858	734.381986259809	1416.025052488094	1137.319895919368	639.890005915293	
127	25.306000000000	827.571338851968	995.839147996942	494.003723475272	1001.343047007770	1412.847282750247	300.226909811670	1118.094260146793	1337.484075662650	449.551885334709	1057.635809587986	1416.082972087077	630.404121548412	1022.561177956793	1474.130540156032	455.755864521020	1052.405544086002	920.279890062239	604.518336312988	1032.883965788971	936.930163318990	329.842058920964	1035.992534594074	705.886174807999	581.959729901075	920.873281422878	621.955679033433	642.592625417968	977.256807216934	549.242110219398	565.878757550543	948.931983318725	463.013561928901	570.257894801618	1110.377046144524	762.161386763818	371.559621849611	1065.337390937594	630.642799220060	295.978299790334	1168.679437100214	576.770713033467	362.346427649303	1191.052070940418	507.311237040164	364.111478051640	1173.360210537500	431.294501656488	353.641838155654	1103.202953590346	303.936053924675	302.858595587816	1179.720224664786	202.318129858159	365.834017842223	898.994581869592	384.811666576102	578.405774533863	802.813786231881	304.042963749117	641.487849206483	819.441374202448	200.645973696176	580.336971896545	654.124856213110	54.447714350995	548.915650351037	826.666318264492	96.924320733970	590.578536054319	733.825731643245	40.969900083582	625.941291724424	942.155776083223	38.215165115456	624.617729722974	1079.007392254700	37.168275375838	402.558536778449	1155.664034519212	36.711486342197	324.235000336594	1233.798501138829	101.785509627819	351.971000244461	1364.838094707907	56.546322550615	329.313966345944	831.639862989546	1104.359115558801	215.265463100488	765.054956449752	853.184838762985	227.354122796086	1186.208361797932	1096.284722381667	731.623105580209	1414.786865501123	1143.128112470974	636.167782601647	
128	25.317714285714	829.510900697897	995.353351370933	491.345775186299	1003.100564465937	1412.291587202022	297.735448763305	1119.624726295512	1337.410682264034	447.547819733819	1058.407193306333	1415.987313173231	628.205095833189	1023.777261318929	1473.963012860027	453.299615149670	1053.998267215561	919.829704074873	602.483383989328	1035.376251943847	936.460959300966	327.882526466681	1037.821544184494	705.412144047718	580.638170294817	922.503518774637	621.477557767667	641.072207705567	979.651440379034	548.282671417890	565.143199526239	950.956174624780	460.763053735827	570.144958804068	1113.155527334550	761.800739649882	369.455047702160	1066.662912910384	630.477441937614	294.622819957783	1169.896296305130	576.040367508938	360.615412813580	1191.114669373110	505.913607054479	363.071821934450	1172.911717453226	429.615883995671	352.940832982310	1101.311637897504	303.248196445636	301.612029820873	1175.127872734316	200.571160449937	365.812342892648	898.720077030461	383.919082671446	578.244617485879	800.219664853494	305.740060670403	641.136145262265	814.970743923127	201.569081122064	580.702678156652	646.549721685974	58.443192057167	549.482563366031	819.981829531411	97.340421898379	591.259606956786	726.036537775901	42.750976576472	626.249243859977	933.984546106246	37.723839480894	624.706459828569	1070.555211132974	37.448772524329	402.862125747615	1147.060217190406	36.075996998284	324.221337326359	1226.619253006272	99.509040898125	352.334501062222	1357.050695764165	51.867858247098	329.138275503226	835.680236582124	1102.097339782563	213.348255938929	768.879711610800	850.937570757310	225.278366469610	1186.019617985839	1095.266213658730	729.166498141439	1412.920752405406	1147.545669187859	632.816607460859	
